<?xml version="1.0" standalone="no"?><!DOCTYPE svg PUBLIC "-//W3C//DTD SVG 1.1//EN" "http://www.w3.org/Graphics/SVG/1.1/DTD/svg11.dtd"><svg t="1621510298002" class="icon" viewBox="0 0 1024 1024" version="1.1" xmlns="http://www.w3.org/2000/svg" p-id="888" xmlns:xlink="http://www.w3.org/1999/xlink" width="200" height="200"><defs><style type="text/css"></style></defs><path d="M936.137 486.613c-11.313 0-20.48 9.167-20.48 20.48v312.246c0 49.677-40.416 90.088-90.092 90.088h-622.87c-49.677 0-90.092-40.411-90.092-90.088V196.465c0-49.677 40.415-90.088 90.092-90.088h310.927c11.313 0 20.48-9.167 20.48-20.48s-9.167-20.48-20.48-20.48H202.695c-72.266 0-131.052 58.79-131.052 131.048v622.874c0 72.262 58.79 131.048 131.052 131.048h622.87c72.266 0 131.052-58.79 131.052-131.048V507.093c0-11.31-9.167-20.48-20.48-20.48z" p-id="889"></path><path d="M936.137 65.417H619.47c-11.313 0-20.48 9.167-20.48 20.48s9.167 20.48 20.48 20.48h206.09c17.052 0 33.014 4.764 46.625 13.03l-372.54 372.539c-7.999 7.995-7.999 20.963 0 28.959 3.998 4.001 9.241 6 14.48 6s10.486-1.999 14.48-6l372.866-372.867c8.962 13.996 14.18 30.609 14.18 48.427V400.26c0 11.313 9.167 20.48 20.48 20.48s20.48-9.167 20.48-20.48V85.897c0.005-11.309-9.162-20.48-20.475-20.48z" p-id="890"></path></svg>