<?xml version="1.0" standalone="no"?><!DOCTYPE svg PUBLIC "-//W3C//DTD SVG 1.1//EN" "http://www.w3.org/Graphics/SVG/1.1/DTD/svg11.dtd"><svg class="icon" width="200px" height="200.00px" viewBox="0 0 1024 1024" version="1.1" xmlns="http://www.w3.org/2000/svg"><path fill="#333333" d="M831.399 788.814c-47.037 0-85.17 38.133-85.17 85.17s38.133 85.17 85.17 85.17 85.17-38.133 85.17-85.17-38.133-85.17-85.17-85.17z m0 127.755c-23.53 0-42.585-19.055-42.585-42.585s19.055-42.585 42.585-42.585 42.585 19.055 42.585 42.585-19.078 42.585-42.585 42.585zM384.245 788.814c-47.037 0-85.17 38.133-85.17 85.17s38.133 85.17 85.17 85.17 85.17-38.133 85.17-85.17-38.133-85.17-85.17-85.17z m0 127.755c-23.53 0-42.585-19.055-42.585-42.585s19.055-42.585 42.585-42.585 42.585 19.055 42.585 42.585-19.078 42.585-42.585 42.585z m568.921-359.29s48.573-278.239 48.573-279.507c0-47.037-38.133-85.17-85.17-85.17l-715.197-0.001-12.733-66.916c-10.53-35.106-42.697-60.84-81.208-60.84H43.542c-11.754 0-21.281 9.529-21.281 21.282 0 11.776 9.528 21.304 21.304 21.304h63.888c20.413 0 37.42 14.38 41.584 33.525L242.755 672.5c0.4 3.027 2.47 11.82 2.47 11.82 9.618 33.637 39.135 59.17 75.154 61.886h596.19c11.754 0 21.304-9.528 21.304-21.282 0-11.776-9.55-21.303-21.303-21.303H326.745c-19.367 0-35.528-13.023-40.715-30.72l-9.595-54.45h595.411c38.646-0.001 70.924-25.89 81.32-61.173z m-684.232 18.587l-60.06-340.68h707.695c23.53 0 42.585 19.055 42.585 42.585 0 7.791-46.837 268.088-46.837 268.088-5.41 17.341-21.348 29.985-40.47 29.985H268.934z" /></svg>