<?xml version="1.0" standalone="no"?><!DOCTYPE svg PUBLIC "-//W3C//DTD SVG 1.1//EN" "http://www.w3.org/Graphics/SVG/1.1/DTD/svg11.dtd"><svg class="icon" width="200px" height="186.52px" viewBox="0 0 1098 1024" version="1.1" xmlns="http://www.w3.org/2000/svg"><path fill="#333333" d="M1081.116 364.611c-12.377-10.9-31.113-9.765-42.014 2.612v0.113L1006.4 404.24C956.21 171.69 750.343 5.678 512.454 6.018 233.46 6.018 6.472 233.006 6.472 512s226.988 505.868 505.982 505.868c71.083 0.227 141.37-14.761 206.322-43.717 15.102-6.586 21.915-24.186 15.33-39.288-6.587-15.103-24.187-21.916-39.29-15.33-0.113 0-0.227 0.114-0.34 0.114-57.23 25.662-119.228 38.834-181.908 38.607-246.065 0-446.254-200.19-446.254-446.254S266.504 65.632 512.568 65.632c209.387-0.34 390.614 145.232 435.353 349.736l-44.852-39.742c-12.377-10.901-31.227-9.766-42.128 2.611-10.9 12.377-9.765 31.227 2.612 42.128l94.701 83.8a29.912 29.912 0 0 0 31.794 4.996c0.909-0.454 1.59-1.249 2.385-1.817 2.952-1.476 5.564-3.406 7.835-5.677v-0.114l83.687-94.814c10.674-12.378 9.538-31.227-2.839-42.128z"  /><path fill="#333333" d="M680.85 544.021H537.322V457.95h143.414c16.465 0 29.864-13.4 29.864-29.864 0-16.465-13.399-29.864-29.864-29.864H578.654l76.08-72.445c11.922-11.355 12.376-30.205 1.021-42.127-11.355-11.923-30.204-12.377-42.127-1.022L506.322 384.823l-98.448-97.88c-11.696-11.583-30.545-11.583-42.127 0.113s-11.582 30.545 0.113 42.127l69.38 68.926H334.293c-16.465 0-29.864 13.399-29.864 29.863s13.4 29.864 29.864 29.864h143.415v86.072H334.293c-16.465 0-29.864 13.399-29.864 29.864 0 16.464 13.4 29.863 29.864 29.863h143.415v162.037c0 16.465 13.399 29.864 29.864 29.864s29.863-13.399 29.863-29.864V603.75H680.85c16.465 0 29.864-13.399 29.864-29.864-0.114-16.465-13.4-29.864-29.864-29.864z"  /></svg>