<?xml version="1.0" standalone="no"?><!DOCTYPE svg PUBLIC "-//W3C//DTD SVG 1.1//EN" "http://www.w3.org/Graphics/SVG/1.1/DTD/svg11.dtd"><svg class="icon" width="200px" height="198.83px" viewBox="0 0 1030 1024" version="1.1" xmlns="http://www.w3.org/2000/svg"><path fill="#333333" d="M857.732 1023.63H171.546C76.939 1023.63 0 947.09 0 853.025V316.828c0-94.064 76.939-170.603 171.546-170.603 13.524 0 24.503 10.922 24.503 24.36 0 13.495-10.979 24.388-24.503 24.388-67.56 0-122.54 54.666-122.54 121.855v536.197c0 67.189 54.98 121.856 122.54 121.856h686.186c67.561 0 122.513-54.667 122.513-121.856V316.828c0-67.189-54.952-121.855-122.513-121.855-13.523 0-24.531-10.893-24.531-24.388 0-13.438 11.008-24.36 24.531-24.36 94.579 0 171.548 76.539 171.548 170.603v536.197c0 94.065-76.969 170.605-171.548 170.605z m-85.773-734.163a24.465 24.465 0 0 1-17.326-7.177L539.142 67.972v530.65c0 67.189 54.98 121.855 122.541 121.855 13.524 0 24.503 10.893 24.503 24.36 0 13.466-10.979 24.359-24.503 24.359-94.608 0-171.546-76.509-171.546-170.574V67.972L274.646 282.29c-9.578 9.521-25.075 9.521-34.653 0-9.578-9.492-9.578-24.931 0-34.452L471.267 17.852c23.902-23.817 62.843-23.788 86.745 0l231.273 229.986c9.578 9.521 9.578 24.96 0 34.452-4.803 4.775-11.065 7.177-17.326 7.177z" /></svg>